<?xml version="1.0" standalone="no"?>
<!DOCTYPE svg PUBLIC "-//W3C//DTD SVG 20010904//EN"
 "http://www.w3.org/TR/2001/REC-SVG-20010904/DTD/svg10.dtd">
<svg version="1.0" xmlns="http://www.w3.org/2000/svg"
 width="512.000000pt" height="512.000000pt" viewBox="0 0 512.000000 512.000000"
 preserveAspectRatio="xMidYMid meet">
<metadata>
Created by potrace 1.14, written by Peter Selinger 2001-2017
</metadata>
<g transform="translate(0.000000,512.000000) scale(0.100000,-0.100000)"
fill="#000000" stroke="none">
<path d="M1779 4823 c-228 -163 -437 -313 -466 -332 -94 -65 -87 -17 -89 -671
-1 -316 -2 -581 -3 -588 -1 -9 -54 -12 -238 -12 -425 1 -420 1 -437 -16 -14
-14 -16 -121 -16 -1029 l0 -1014 -23 -18 c-75 -59 -137 -193 -137 -297 0 -101
44 -206 115 -277 l45 -44 0 -187 0 -188 -109 0 c-122 0 -146 -10 -157 -67 -5
-26 -1 -37 19 -57 l26 -26 2251 0 2251 0 24 25 c32 31 32 69 0 100 -23 24 -30
25 -144 25 l-120 0 1 188 1 187 38 37 c83 81 121 173 121 289 -1 47 -8 93 -18
120 -24 61 -81 145 -114 169 l-28 20 0 1825 c0 1729 -1 1827 -18 1846 -17 19
-38 19 -829 19 -786 0 -812 -1 -829 -19 -16 -17 -17 -48 -17 -315 l1 -296
-123 0 -122 0 0 366 c0 401 -2 417 -53 429 -39 8 -88 -16 -94 -47 -2 -13 -4
-186 -3 -386 l0 -363 -130 3 -130 3 -1 436 c0 239 -4 441 -8 447 -4 7 -11 12
-15 12 -4 0 -194 -134 -422 -297z"/>
</g>
</svg>
